<svg xmlns="http://www.w3.org/2000/svg" xmlns:xlink="http://www.w3.org/1999/xlink" width="500" zoomAndPan="magnify" viewBox="0 0 375 374.999991" height="500" preserveAspectRatio="xMidYMid meet" version="1.0"><defs><g/></defs><g fill="#fff9f9" fill-opacity="1"><g transform="translate(81.812825, 228.759155)"><g><path d="M 27.984375 0 L 1.09375 -68.578125 L 33.375 -68.578125 L 47.671875 -23.21875 L 49.375 -23.21875 L 45.71875 -35.078125 L 56.59375 -68.578125 L 88.734375 -68.578125 L 61.96875 0 Z M 27.984375 0 "/></g></g></g><path stroke-linecap="butt" transform="matrix(1.676012, 0, 0, 1.676012, 148.108574, 113.008908)" fill="none" stroke-linejoin="miter" d="M 23.579987 41.511122 C 24.370088 41.086938 24.833894 40.490284 24.973735 39.728151 C 25.111245 38.954364 24.943436 38.259821 24.465646 37.644521 C 23.987856 37.019898 23.197755 36.707587 22.095343 36.707587 C 21.167731 36.672627 20.463865 36.933663 19.986076 37.488365 C 19.508286 38.036076 19.261233 38.672352 19.244919 39.401855 C 19.226273 40.131359 19.438365 40.781619 19.881195 41.354967 C 20.324024 41.918992 21.02789 42.201004 21.990462 42.201004 L 37.081628 42.201004 L 37.081628 55.001109 L 21.990462 55.001109 C 19.855557 55.001109 17.862824 54.600232 16.014594 53.803139 C 14.166363 53.003715 12.530224 51.89198 11.106177 50.467933 C 9.682131 49.046217 8.572726 47.410078 7.773302 45.559517 C 6.973878 43.711286 6.575332 41.718553 6.575332 39.583648 C 6.575332 36.779838 7.204616 34.225411 8.463184 31.915705 C 9.731075 29.599007 11.528031 27.741454 13.854051 26.343044 C 16.180072 24.937643 18.944261 24.217462 22.146618 24.182502 C 23.813055 24.182502 25.493477 24.343319 27.185552 24.662623 C 28.877627 24.974934 30.471814 25.578581 31.96345 26.473563 C 33.457417 27.359222 34.699671 28.673726 35.68788 30.417076 C 36.114395 31.165225 36.422045 32.055546 36.61316 33.088038 C 36.811268 34.111207 36.88585 35.167006 36.834575 36.250773 C 36.78097 37.336871 36.559555 38.350718 36.170331 39.296975 C 35.778776 40.236239 35.17513 40.972735 34.359391 41.511122 Z M 23.579987 41.511122 " stroke="#171616" stroke-width="3.999998" stroke-opacity="1" stroke-miterlimit="4"/><g fill="#fff9f9" fill-opacity="1"><g transform="translate(158.32177, 205.189547)"><g><path d="M 29.3125 -22.609375 C 30.625 -23.328125 31.398438 -24.328125 31.640625 -25.609375 C 31.878906 -26.890625 31.59375 -28.050781 30.78125 -29.09375 C 29.976562 -30.132812 28.65625 -30.65625 26.8125 -30.65625 C 25.257812 -30.71875 24.082031 -30.285156 23.28125 -29.359375 C 22.476562 -28.429688 22.0625 -27.359375 22.03125 -26.140625 C 22 -24.921875 22.351562 -23.832031 23.09375 -22.875 C 23.84375 -21.925781 25.023438 -21.453125 26.640625 -21.453125 L 51.921875 -21.453125 L 51.921875 0 L 26.640625 0 C 23.054688 0 19.710938 -0.664062 16.609375 -2 C 13.515625 -3.34375 10.773438 -5.207031 8.390625 -7.59375 C 6.015625 -9.976562 4.15625 -12.71875 2.8125 -15.8125 C 1.46875 -18.914062 0.796875 -22.253906 0.796875 -25.828125 C 0.796875 -30.535156 1.851562 -34.828125 3.96875 -38.703125 C 6.09375 -42.578125 9.101562 -45.6875 13 -48.03125 C 16.90625 -50.382812 21.539062 -51.59375 26.90625 -51.65625 C 29.707031 -51.65625 32.519531 -51.382812 35.34375 -50.84375 C 38.175781 -50.3125 40.84375 -49.300781 43.34375 -47.8125 C 45.84375 -46.320312 47.929688 -44.117188 49.609375 -41.203125 C 50.316406 -39.953125 50.832031 -38.460938 51.15625 -36.734375 C 51.488281 -35.003906 51.609375 -33.226562 51.515625 -31.40625 C 51.429688 -29.59375 51.0625 -27.894531 50.40625 -26.3125 C 49.75 -24.738281 48.738281 -23.503906 47.375 -22.609375 Z M 29.3125 -22.609375 "/></g></g></g><path stroke-linecap="butt" transform="matrix(1.676012, 0, 0, 1.676012, 181.265851, 137.987276)" fill="none" stroke-linejoin="miter" d="M 17.300517 17.620555 L 30.424587 17.620555 L 30.424587 55.000032 L 17.300517 55.000032 Z M 17.300517 17.620555 " stroke="#171616" stroke-width="3.999998" stroke-opacity="1" stroke-miterlimit="4"/><g fill="#fff9f9" fill-opacity="1"><g transform="translate(209.365233, 230.167915)"><g><path d="M 0.890625 -62.65625 L 22.875 -62.65625 L 22.875 0 L 0.890625 0 Z M 0.890625 -62.65625 "/></g></g></g><g fill="#fff9f9" fill-opacity="1"><g transform="translate(241.971189, 230.167915)"><g><path d="M 27.265625 1.4375 C 23.628906 1.4375 20.203125 0.75 16.984375 -0.625 C 13.765625 -2 10.929688 -3.90625 8.484375 -6.34375 C 6.046875 -8.789062 4.140625 -11.617188 2.765625 -14.828125 C 1.398438 -18.046875 0.71875 -21.472656 0.71875 -25.109375 C 0.71875 -28.804688 1.398438 -32.25 2.765625 -35.4375 C 4.140625 -38.625 6.046875 -41.4375 8.484375 -43.875 C 10.929688 -46.320312 13.765625 -48.226562 16.984375 -49.59375 C 20.203125 -50.96875 23.628906 -51.65625 27.265625 -51.65625 C 30.953125 -51.65625 34.390625 -50.96875 37.578125 -49.59375 C 40.765625 -48.226562 43.578125 -46.320312 46.015625 -43.875 C 48.460938 -41.4375 50.367188 -38.625 51.734375 -35.4375 C 53.109375 -32.25 53.796875 -28.804688 53.796875 -25.109375 C 53.796875 -21.472656 53.109375 -18.046875 51.734375 -14.828125 C 50.367188 -11.617188 48.460938 -8.789062 46.015625 -6.34375 C 43.578125 -3.90625 40.765625 -2 37.578125 -0.625 C 34.390625 0.75 30.953125 1.4375 27.265625 1.4375 Z M 27.265625 -29.671875 C 26.003906 -29.671875 24.925781 -29.222656 24.03125 -28.328125 C 23.144531 -27.429688 22.703125 -26.359375 22.703125 -25.109375 C 22.703125 -23.859375 23.144531 -22.785156 24.03125 -21.890625 C 24.925781 -21.003906 26.003906 -20.5625 27.265625 -20.5625 C 28.515625 -20.5625 29.582031 -21.003906 30.46875 -21.890625 C 31.363281 -22.785156 31.8125 -23.859375 31.8125 -25.109375 C 31.8125 -26.359375 31.363281 -27.429688 30.46875 -28.328125 C 29.582031 -29.222656 28.515625 -29.671875 27.265625 -29.671875 Z M 27.265625 -29.671875 "/></g></g></g><g fill="#fff9f9" fill-opacity="1"><g transform="translate(241.616473, 175.665791)"><g><path d="M 5.1875 -3.03125 C 4.6875 -2.707031 4.140625 -2.441406 3.546875 -2.234375 C 2.953125 -2.035156 2.347656 -1.9375 1.734375 -1.9375 C 1.128906 -1.9375 0.535156 -2.070312 -0.046875 -2.34375 C -0.640625 -2.613281 -1.1875 -3.0625 -1.6875 -3.6875 L 0.359375 -5 C 0.785156 -4.570312 1.21875 -4.300781 1.65625 -4.1875 C 2.09375 -4.082031 2.519531 -4.085938 2.9375 -4.203125 C 3.363281 -4.316406 3.753906 -4.488281 4.109375 -4.71875 C 4.660156 -5.070312 5.039062 -5.476562 5.25 -5.9375 C 5.46875 -6.394531 5.421875 -6.875 5.109375 -7.375 C 4.867188 -7.738281 4.566406 -7.941406 4.203125 -7.984375 C 3.847656 -8.035156 3.445312 -8 3 -7.875 C 2.550781 -7.75 2.070312 -7.585938 1.5625 -7.390625 C 1.0625 -7.210938 0.5625 -7.046875 0.0625 -6.890625 C -0.425781 -6.742188 -0.914062 -6.660156 -1.40625 -6.640625 C -1.90625 -6.617188 -2.375 -6.710938 -2.8125 -6.921875 C -3.257812 -7.140625 -3.65625 -7.519531 -4 -8.0625 C -4.4375 -8.738281 -4.632812 -9.40625 -4.59375 -10.0625 C -4.550781 -10.71875 -4.328125 -11.335938 -3.921875 -11.921875 C -3.515625 -12.503906 -2.960938 -13.019531 -2.265625 -13.46875 C -1.585938 -13.90625 -0.878906 -14.191406 -0.140625 -14.328125 C 0.597656 -14.472656 1.320312 -14.429688 2.03125 -14.203125 C 2.75 -13.984375 3.40625 -13.535156 4 -12.859375 L 2 -11.578125 C 1.519531 -12.046875 0.992188 -12.28125 0.421875 -12.28125 C -0.148438 -12.28125 -0.703125 -12.109375 -1.234375 -11.765625 C -1.722656 -11.453125 -2.0625 -11.09375 -2.25 -10.6875 C -2.445312 -10.28125 -2.414062 -9.875 -2.15625 -9.46875 C -1.957031 -9.15625 -1.6875 -8.976562 -1.34375 -8.9375 C -1 -8.894531 -0.613281 -8.9375 -0.1875 -9.0625 C 0.238281 -9.195312 0.695312 -9.347656 1.1875 -9.515625 C 1.675781 -9.691406 2.179688 -9.859375 2.703125 -10.015625 C 3.234375 -10.171875 3.757812 -10.253906 4.28125 -10.265625 C 4.800781 -10.285156 5.296875 -10.179688 5.765625 -9.953125 C 6.234375 -9.722656 6.65625 -9.316406 7.03125 -8.734375 C 7.65625 -7.753906 7.8125 -6.753906 7.5 -5.734375 C 7.1875 -4.710938 6.414062 -3.8125 5.1875 -3.03125 Z M 5.1875 -3.03125 "/></g></g></g><g fill="#fff9f9" fill-opacity="1"><g transform="translate(252.978089, 168.931432)"><g><path d="M 6.125 -1.328125 L 3.84375 -0.828125 L 1.671875 -10.859375 L -2.015625 -10.0625 L -2.453125 -12.09375 L 7.171875 -14.1875 L 7.609375 -12.15625 L 3.953125 -11.359375 Z M 6.125 -1.328125 "/></g></g></g><g fill="#fff9f9" fill-opacity="1"><g transform="translate(264.883873, 166.550673)"><g><path d="M 5.859375 1.125 C 4.691406 0.945312 3.773438 0.609375 3.109375 0.109375 C 2.441406 -0.390625 1.988281 -1.019531 1.75 -1.78125 C 1.519531 -2.539062 1.476562 -3.378906 1.625 -4.296875 L 2.78125 -12.0625 L 5.109375 -11.703125 L 3.953125 -3.9375 C 3.867188 -3.425781 3.875 -2.960938 3.96875 -2.546875 C 4.070312 -2.140625 4.300781 -1.796875 4.65625 -1.515625 C 5.007812 -1.242188 5.515625 -1.054688 6.171875 -0.953125 C 6.828125 -0.859375 7.359375 -0.890625 7.765625 -1.046875 C 8.179688 -1.210938 8.5 -1.476562 8.71875 -1.84375 C 8.9375 -2.207031 9.085938 -2.644531 9.171875 -3.15625 L 10.328125 -10.921875 L 12.640625 -10.578125 L 11.484375 -2.8125 C 11.335938 -1.894531 11.046875 -1.109375 10.609375 -0.453125 C 10.171875 0.203125 9.5625 0.671875 8.78125 0.953125 C 8 1.234375 7.023438 1.289062 5.859375 1.125 Z M 5.859375 1.125 "/></g></g></g><g fill="#fff9f9" fill-opacity="1"><g transform="translate(278.435001, 168.958642)"><g><path d="M 4.046875 2.375 L 0.9375 0.546875 L 7.1875 -10.09375 L 10.296875 -8.265625 C 12.097656 -7.203125 13.207031 -5.925781 13.625 -4.4375 C 14.039062 -2.957031 13.742188 -1.363281 12.734375 0.34375 C 11.734375 2.039062 10.484375 3.066406 8.984375 3.421875 C 7.484375 3.773438 5.835938 3.425781 4.046875 2.375 Z M 8.171875 -7.09375 L 4.03125 -0.0625 L 5.078125 0.546875 C 5.785156 0.960938 6.46875 1.222656 7.125 1.328125 C 7.789062 1.429688 8.429688 1.3125 9.046875 0.96875 C 9.660156 0.632812 10.222656 0.03125 10.734375 -0.84375 C 11.222656 -1.675781 11.46875 -2.4375 11.46875 -3.125 C 11.46875 -3.820312 11.273438 -4.445312 10.890625 -5 C 10.503906 -5.5625 9.953125 -6.050781 9.234375 -6.46875 Z M 8.171875 -7.09375 "/></g></g></g><g fill="#fff9f9" fill-opacity="1"><g transform="translate(290.027888, 176.762521)"><g><path d="M 2.34375 2.515625 L 0.75 0.796875 L 9.796875 -7.59375 L 11.390625 -5.875 Z M 2.34375 2.515625 "/></g></g></g><g fill="#fff9f9" fill-opacity="1"><g transform="translate(294.887701, 181.515641)"><g><path d="M 2.59375 6.09375 C 2.15625 5.164062 1.9375 4.285156 1.9375 3.453125 C 1.9375 2.628906 2.097656 1.867188 2.421875 1.171875 C 2.753906 0.484375 3.21875 -0.132812 3.8125 -0.6875 C 4.40625 -1.238281 5.09375 -1.695312 5.875 -2.0625 C 6.644531 -2.414062 7.429688 -2.644531 8.234375 -2.75 C 9.035156 -2.851562 9.804688 -2.804688 10.546875 -2.609375 C 11.296875 -2.421875 11.984375 -2.054688 12.609375 -1.515625 C 13.234375 -0.984375 13.765625 -0.253906 14.203125 0.671875 C 14.628906 1.597656 14.847656 2.472656 14.859375 3.296875 C 14.867188 4.128906 14.707031 4.890625 14.375 5.578125 C 14.050781 6.273438 13.59375 6.898438 13 7.453125 C 12.40625 8.003906 11.722656 8.457031 10.953125 8.8125 C 10.171875 9.175781 9.378906 9.410156 8.578125 9.515625 C 7.773438 9.617188 7 9.570312 6.25 9.375 C 5.507812 9.1875 4.820312 8.820312 4.1875 8.28125 C 3.550781 7.75 3.019531 7.019531 2.59375 6.09375 Z M 4.5 5.21875 C 4.8125 5.90625 5.242188 6.410156 5.796875 6.734375 C 6.359375 7.066406 6.992188 7.222656 7.703125 7.203125 C 8.410156 7.179688 9.15625 6.988281 9.9375 6.625 C 10.707031 6.269531 11.320312 5.828125 11.78125 5.296875 C 12.238281 4.765625 12.515625 4.179688 12.609375 3.546875 C 12.710938 2.910156 12.609375 2.25 12.296875 1.5625 C 11.972656 0.882812 11.535156 0.378906 10.984375 0.046875 C 10.429688 -0.285156 9.804688 -0.4375 9.109375 -0.40625 C 8.410156 -0.382812 7.675781 -0.195312 6.90625 0.15625 C 6.125 0.519531 5.5 0.960938 5.03125 1.484375 C 4.5625 2.015625 4.273438 2.597656 4.171875 3.234375 C 4.066406 3.878906 4.175781 4.539062 4.5 5.21875 Z M 4.5 5.21875 "/></g></g></g></svg>